<svg width="50" height="50" viewBox="0 0 50 50" fill="none" xmlns="http://www.w3.org/2000/svg">
<path d="M1 43.1804V32.9531C1 29.9347 1.56818 26.7564 2.70455 23.4183C3.84091 20.0803 5.42117 16.8842 7.44531 13.8303C9.46946 10.7763 11.8487 8.16619 14.5831 6L22.4666 11.6463C20.3004 14.8068 18.4538 18.1094 16.9268 21.554C15.3999 24.9986 14.6364 28.745 14.6364 32.7933V43.1804H1ZM28.1662 43.1804V32.9531C28.1662 29.9347 28.7344 26.7564 29.8707 23.4183C31.0071 20.0803 32.5874 16.8842 34.6115 13.8303C36.6357 10.7763 39.0149 8.16619 41.7493 6L49.6328 11.6463C47.4666 14.8068 45.62 18.1094 44.093 21.554C42.5661 24.9986 41.8026 28.745 41.8026 32.7933V43.1804H28.1662Z" fill="white"/>
</svg>
