<svg width="48" height="48" viewBox="0 0 48 48" fill="none" xmlns="http://www.w3.org/2000/svg">
<path d="M0 24C0 10.7452 10.7452 0 24 0C37.2548 0 48 10.7452 48 24C48 37.2548 37.2548 48 24 48C10.7452 48 0 37.2548 0 24Z" fill="#DC4E41"/>
<path fill-rule="evenodd" clip-rule="evenodd" d="M26.8473 23.3143H19.6364V25.92H23.9673C23.7927 27.0383 22.6582 29.1988 19.6364 29.1988C17.0291 29.1988 14.9018 27.0491 14.9018 24.4C14.9018 21.7508 17.0291 19.6011 19.6364 19.6011C21.12 19.6011 22.1127 20.2308 22.68 20.7737L24.7527 18.7868C23.4218 17.5491 21.6982 16.8 19.6364 16.8C15.4145 16.8 12 20.1983 12 24.4C12 28.6017 15.4145 32 19.6364 32C24.0436 32 26.9673 28.9166 26.9673 24.5737C26.9673 24.0743 26.9127 23.6943 26.8473 23.3143ZM33.8182 25.4857H36V23.3143H33.8182V21.1428H31.6364V23.3143H29.4545V25.4857H31.6364V27.6571H33.8182V25.4857Z" fill="white"/>
</svg>
